# xmcd
#
# Track frame offsets: 
#        150
#        18808
#        33347
#        45253
#        57525
#        70235
#        83528
#        96452
#        112446
#        126170
#        142637
#        164289
#        178773
#        193264
#        215469
#        241614
#        261085
#        282040
#
# Disc length: 4095 seconds
#
# Revision: 1
# Processed by: cddbd v1.5.2PL0 Copyright (c) Steve Scherf et al.
# Submitted via: ExactAudioCopy v0.99pb5
#
DISCID=f90ffd12
DTITLE=Various Artist - Mr Bongo Latin Beats Boxset CD3 Cachao Classics
DYEAR=2009
DGENRE=Salsa
TTITLE0=Siboney - Cachao Y su Orquesta
TTITLE1=Avance Juvenil - Cachao Y su Orquesta
TTITLE2=Marta - Cachao Y su Orquesta
TTITLE3=La Floresta  - Cachao Y su Orquesta
TTITLE4=El Nino Toca El Tres - Cachao Y su Orquesta
TTITLE5=La Bayamesa - Cachao Y su Orquesta
TTITLE6=Juan Pescao - Cachao Y su Orquesta
TTITLE7=A Buscar Camarones - Cachao Y su Orquesta
TTITLE8=El Manisero - Cachao Y su Orquesta
TTITLE9=Descarga General - Cachao Y su Orquesta
TTITLE10=Y Tu Que Has Hecho - Cachao Y su Orquesta
TTITLE11=Redencion - Cachao Y su Orquesta
TTITLE12=Descarga En Trompeta - Cachao Y su Orquesta
TTITLE13=Descarga Mexicana - Cachao Y su Orquesta
TTITLE14=Descarga Guajira - Cachao Y su Orquesta
TTITLE15=El Fantasma Del Combo - Cachao Y su Orquesta
TTITLE16=La Luz - Cachao Y su Orquesta
TTITLE17=Poupurrit De Congas - Cachao Y su Orquesta
EXTD=YEAR: 2009
EXTT0=
EXTT1=
EXTT2=
EXTT3=
EXTT4=
EXTT5=
EXTT6=
EXTT7=
EXTT8=
EXTT9=
EXTT10=
EXTT11=
EXTT12=
EXTT13=
EXTT14=
EXTT15=
EXTT16=
EXTT17=
PLAYORDER=
